<?xml version="1.0" standalone="no"?>
<!DOCTYPE svg PUBLIC "-//W3C//DTD SVG 20010904//EN"
 "http://www.w3.org/TR/2001/REC-SVG-20010904/DTD/svg10.dtd">
<svg version="1.0" xmlns="http://www.w3.org/2000/svg"
 width="1000.000000pt" height="1000.000000pt" viewBox="0 0 1000.000000 1000.000000"
 preserveAspectRatio="xMidYMid meet">
<metadata>
Created by potrace 1.14, written by Peter Selinger 2001-2017
</metadata>
<g transform="translate(0.000000,1000.000000) scale(0.100000,-0.100000)"
fill="#000000" stroke="none">
<path d="M4934 9671 c-2 -2 -57 -6 -121 -8 -128 -4 -207 -9 -293 -18 -30 -4
-62 -7 -70 -7 -20 0 -229 -30 -295 -42 -11 -2 -40 -7 -65 -11 -25 -3 -61 -10
-80 -15 -19 -5 -48 -11 -65 -14 -16 -3 -45 -10 -63 -15 -18 -5 -35 -10 -37
-10 -3 -1 -6 -1 -7 -2 -2 0 -14 -2 -28 -5 -24 -4 -84 -21 -180 -51 -25 -7 -49
-14 -55 -15 -5 0 -46 -14 -90 -30 -44 -16 -84 -31 -90 -32 -5 -2 -23 -8 -38
-14 -16 -7 -30 -12 -33 -12 -5 0 -65 -26 -169 -74 -38 -18 -85 -39 -102 -47
-18 -8 -33 -17 -33 -21 0 -5 -11 -8 -24 -8 -14 0 -37 -10 -53 -23 -15 -13 -50
-36 -78 -52 -48 -28 -205 -133 -215 -144 -3 -4 -23 -19 -45 -36 -70 -51 -200
-176 -265 -255 -19 -23 -40 -47 -45 -54 -32 -35 -112 -168 -149 -248 -36 -79
-70 -179 -81 -238 -20 -111 -23 -284 -6 -359 6 -25 13 -55 14 -66 7 -40 20
-80 30 -92 5 -7 7 -13 4 -13 -6 0 32 -91 65 -155 58 -111 175 -268 194 -261 8
3 11 0 8 -9 -10 -26 296 -301 323 -290 7 2 12 0 10 -6 -1 -6 7 -16 17 -22 11
-7 29 -20 39 -29 19 -16 16 -22 -105 -205 -212 -319 -380 -609 -554 -958 -58
-115 -109 -211 -114 -213 -4 -2 -39 12 -77 31 -66 33 -120 52 -135 49 -5 -1
-8 2 -8 7 0 7 -60 28 -137 48 -27 7 -39 10 -53 16 -8 4 -26 8 -40 10 -14 2
-32 7 -40 10 -8 4 -36 8 -61 10 -25 2 -50 6 -55 9 -12 7 -80 11 -189 11 -114
1 -167 -4 -183 -16 -7 -6 -15 -7 -18 -4 -6 5 -111 -17 -159 -34 -98 -35 -165
-70 -247 -125 -74 -50 -238 -204 -238 -224 0 -4 -13 -22 -29 -41 -16 -18 -27
-37 -25 -41 3 -4 2 -8 -3 -8 -4 0 -26 -35 -48 -77 -22 -43 -43 -79 -47 -81 -5
-2 -8 -10 -8 -18 0 -8 -4 -22 -10 -32 -16 -29 -78 -224 -90 -282 -33 -171 -49
-308 -54 -480 -1 -36 -5 -71 -9 -77 -5 -7 -3 -21 2 -32 6 -10 13 -63 16 -118
6 -111 9 -137 26 -254 17 -120 16 -117 33 -199 21 -102 24 -119 30 -138 3 -9
7 -28 10 -42 16 -83 115 -404 133 -434 4 -6 9 -19 10 -28 4 -24 125 -322 133
-328 4 -3 11 -16 15 -30 12 -40 171 -345 238 -458 34 -56 67 -110 72 -120 40
-66 200 -300 215 -312 3 -3 23 -30 45 -60 37 -51 79 -103 209 -255 120 -141
362 -372 516 -494 36 -28 73 -58 83 -66 9 -8 21 -15 26 -15 4 0 16 -9 26 -20
10 -12 25 -18 32 -15 8 2 11 0 8 -5 -3 -5 16 -23 42 -39 26 -16 60 -39 74 -50
15 -11 55 -36 90 -54 117 -63 250 -129 262 -131 7 -2 34 -13 61 -25 27 -12 56
-23 65 -24 9 -2 25 -8 36 -14 11 -6 36 -14 55 -19 50 -11 50 -11 53 -14 3 -2
35 -9 67 -15 14 -2 25 -5 25 -6 0 -1 9 -3 20 -5 11 -1 31 -5 45 -9 78 -20 292
-26 415 -12 58 7 190 39 230 57 112 48 222 112 284 164 42 36 161 160 161 167
0 4 6 14 13 21 34 35 99 144 143 238 28 59 99 269 108 316 2 16 7 40 10 54 3
13 8 40 11 60 3 20 7 45 9 57 5 23 17 139 20 183 1 28 1 28 143 17 322 -27
1027 -28 1273 -2 19 2 64 5 99 7 73 3 67 11 75 -100 3 -34 7 -70 10 -80 3 -9
7 -37 10 -62 14 -122 98 -401 142 -468 8 -12 12 -22 10 -22 -11 0 91 -160 142
-225 104 -129 201 -209 337 -277 46 -24 62 -31 128 -57 26 -11 101 -31 137
-36 14 -2 43 -7 65 -11 54 -10 253 -11 340 -1 57 6 105 15 192 37 2 0 8 2 15
4 7 2 33 9 58 15 90 24 237 83 365 148 50 25 100 51 112 57 13 6 23 14 23 19
0 4 8 7 18 7 10 0 49 22 87 50 39 27 78 55 89 62 45 30 172 124 187 138 15 14
74 63 137 115 14 11 91 85 172 165 143 140 206 207 280 299 19 24 42 51 50 60
24 25 180 231 180 237 0 3 4 10 10 17 48 59 130 183 130 197 0 5 3 10 8 10 6
0 19 20 57 85 7 11 22 36 33 55 12 19 32 55 44 80 13 25 27 50 31 55 13 17 44
75 97 185 28 58 57 116 65 130 54 101 240 603 259 700 2 14 11 48 19 75 15 52
53 218 62 270 3 17 7 41 10 55 3 14 7 47 10 74 3 27 8 52 10 57 5 7 10 59 21
209 7 92 11 124 18 147 4 13 4 28 -1 35 -4 7 -8 47 -9 88 -1 82 -12 225 -21
280 -3 19 -7 44 -8 55 -1 11 -3 20 -4 20 -1 0 -4 16 -7 35 -5 38 -32 156 -41
180 -4 8 -7 17 -8 20 -6 23 -18 58 -25 75 -4 11 -18 47 -31 80 -71 187 -220
386 -369 495 -106 76 -242 143 -335 165 -5 1 -21 5 -35 8 -77 20 -169 31 -265
30 -150 0 -167 -2 -159 -15 6 -10 5 -10 -8 -1 -8 7 -17 11 -20 8 -3 -3 -29 -8
-59 -11 -30 -3 -58 -9 -64 -12 -5 -3 -25 -7 -44 -9 -18 -2 -42 -8 -51 -13 -9
-5 -28 -11 -41 -14 -32 -6 -116 -34 -156 -52 -17 -8 -34 -14 -38 -14 -4 0 -37
-14 -74 -32 -36 -18 -73 -33 -81 -35 -11 -1 -38 42 -89 145 -201 405 -359 681
-586 1023 l-130 195 50 32 c114 70 345 278 409 366 11 15 30 39 43 54 30 34
119 183 116 194 -2 4 1 8 6 8 5 0 12 10 16 23 4 12 8 24 10 27 34 76 50 126
71 215 24 107 22 378 -4 420 -4 6 -8 19 -9 30 -6 39 -56 168 -89 232 -61 114
-82 143 -101 137 -15 -5 -15 -4 -4 4 12 8 4 24 -45 84 -66 82 -177 195 -243
248 -25 19 -50 41 -57 48 -7 6 -17 12 -22 12 -6 0 -12 4 -14 8 -1 4 -25 23
-53 42 -27 19 -54 38 -60 43 -39 29 -102 67 -112 67 -7 0 -13 5 -13 10 0 6 -6
10 -13 10 -8 0 -24 11 -37 25 -13 14 -32 25 -41 25 -10 0 -39 11 -64 25 -172
97 -682 275 -860 301 -16 3 -41 9 -55 14 -14 5 -41 11 -60 14 -19 2 -60 9 -90
15 -102 19 -225 38 -305 46 -27 2 -68 7 -90 10 -71 9 -167 15 -320 20 -82 3
-167 7 -188 8 -21 1 -40 0 -43 -2z m-1090 -289 c3 -5 -1 -9 -9 -9 -8 0 -12 4
-9 9 3 4 7 8 9 8 2 0 6 -4 9 -8z m1446 -242 c0 -5 -5 -10 -11 -10 -5 0 -7 5
-4 10 3 6 8 10 11 10 2 0 4 -4 4 -10z m1805 -100 c-3 -5 -12 -10 -18 -10 -7 0
-6 4 3 10 19 12 23 12 15 0z m95 0 c0 -5 -2 -10 -4 -10 -3 0 -8 5 -11 10 -3 6
-1 10 4 10 6 0 11 -4 11 -10z m-285 -160 c3 -5 1 -10 -4 -10 -6 0 -11 5 -11
10 0 6 2 10 4 10 3 0 8 -4 11 -10z m-4259 -46 c1 -9 0 -13 -4 -10 -3 4 -7 14
-8 22 -1 9 0 13 4 10 3 -4 7 -14 8 -22z m1575 -121 c13 -16 12 -17 -3 -4 -10
7 -18 15 -18 17 0 8 8 3 21 -13z m3353 9 c3 -5 -1 -9 -9 -9 -8 0 -12 4 -9 9 3
4 7 8 9 8 2 0 6 -4 9 -8z m-26 -167 c-3 -3 -9 2 -12 12 -6 14 -5 15 5 6 7 -7
10 -15 7 -18z m-601 0 c0 -8 -4 -12 -9 -9 -5 3 -6 10 -3 15 9 13 12 11 12 -6z
m-2937 -51 c0 -8 -19 -13 -24 -6 -3 5 1 9 9 9 8 0 15 -2 15 -3z m-1596 -522
c3 -5 -1 -9 -9 -9 -8 0 -12 4 -9 9 3 4 7 8 9 8 2 0 6 -4 9 -8z m1116 -42 c0
-5 -5 -10 -11 -10 -5 0 -7 5 -4 10 3 6 8 10 11 10 2 0 4 -4 4 -10z m1173 -15
c-3 -9 -8 -14 -10 -11 -3 3 -2 9 2 15 9 16 15 13 8 -4z m-2248 -4 c-9 -8 -36
-10 -30 -2 2 4 11 8 20 8 8 0 13 -3 10 -6z m290 -9 c-3 -3 -11 0 -18 7 -9 10
-8 11 6 5 10 -3 15 -9 12 -12z m138 -87 c-3 -9 -8 -14 -10 -11 -3 3 -2 9 2 15
9 16 15 13 8 -4z m-460 -60 c-3 -9 -8 -14 -10 -11 -3 3 -2 9 2 15 9 16 15 13
8 -4z m842 -13 c-3 -3 -11 0 -18 7 -9 10 -8 11 6 5 10 -3 15 -9 12 -12z m3965
14 c0 -2 -7 -7 -16 -10 -8 -3 -12 -2 -9 4 6 10 25 14 25 6z m-1779 -63 c13
-16 12 -17 -3 -4 -10 7 -18 15 -18 17 0 8 8 3 21 -13z m-1441 -39 c0 -8 -19
-13 -24 -6 -3 5 1 9 9 9 8 0 15 -2 15 -3z m320 -4 c0 -5 -5 -10 -11 -10 -5 0
-7 5 -4 10 3 6 8 10 11 10 2 0 4 -4 4 -10z m2560 4 c0 -8 -19 -13 -24 -6 -3 5
1 9 9 9 8 0 15 -2 15 -3z m-3526 -50 c3 -8 2 -12 -4 -9 -6 3 -10 10 -10 16 0
14 7 11 14 -7z m1264 -19 c-3 -3 -9 2 -12 12 -6 14 -5 15 5 6 7 -7 10 -15 7
-18z m-264 7 c3 -5 -1 -9 -9 -9 -8 0 -12 4 -9 9 3 4 7 8 9 8 2 0 6 -4 9 -8z
m-614 -146 c0 -2 -8 -10 -17 -17 -16 -13 -17 -12 -4 4 13 16 21 21 21 13z
m174 -14 c3 -5 -1 -9 -9 -9 -8 0 -12 4 -9 9 3 4 7 8 9 8 2 0 6 -4 9 -8z m721
-121 c3 -5 2 -12 -3 -15 -5 -3 -9 1 -9 9 0 17 3 19 12 6z m2560 -29 c-3 -3
-11 0 -18 7 -9 10 -8 11 6 5 10 -3 15 -9 12 -12z m-2500 -1 c3 -5 2 -12 -3
-15 -5 -3 -9 1 -9 9 0 17 3 19 12 6z m2339 -89 c3 -5 -1 -9 -9 -9 -8 0 -12 4
-9 9 3 4 7 8 9 8 2 0 6 -4 9 -8z m-1280 -20 c3 -5 -1 -9 -9 -9 -8 0 -12 4 -9
9 3 4 7 8 9 8 2 0 6 -4 9 -8z m-1814 -62 c0 -5 -5 -10 -11 -10 -5 0 -7 5 -4
10 3 6 8 10 11 10 2 0 4 -4 4 -10z m1337 -155 c0 -8 -4 -12 -9 -9 -5 3 -6 10
-3 15 9 13 12 11 12 -6z m296 0 c-3 -9 -8 -14 -10 -11 -3 3 -2 9 2 15 9 16 15
13 8 -4z m-2222 -32 c13 -16 12 -17 -3 -4 -10 7 -18 15 -18 17 0 8 8 3 21 -13z
m1043 -71 c3 -5 -1 -9 -9 -9 -8 0 -12 4 -9 9 3 4 7 8 9 8 2 0 6 -4 9 -8z
m-1253 -205 c128 -60 284 -122 324 -129 11 -1 22 -6 25 -10 3 -3 30 -13 60
-22 243 -68 309 -86 335 -90 17 -2 30 -5 30 -6 0 -4 210 -46 277 -55 24 -3 71
-10 105 -16 34 -5 66 -9 70 -8 4 1 10 1 13 -1 28 -10 271 -28 461 -34 58 -2
115 -9 128 -15 17 -10 25 -10 37 0 8 7 54 13 112 14 53 2 97 4 97 4 0 1 48 3
106 6 58 2 126 7 150 10 24 3 60 7 79 9 52 5 152 18 175 22 49 10 73 14 110
18 22 3 70 12 105 20 36 8 81 17 100 21 38 6 45 8 75 18 11 3 31 9 45 11 41 9
214 56 230 63 17 7 34 12 45 14 41 4 376 141 506 207 17 8 346 -508 499 -783
97 -174 276 -528 285 -565 5 -23 -3 -31 -90 -89 -52 -35 -95 -67 -95 -72 0 -5
-7 -9 -15 -9 -7 0 -18 -6 -22 -13 -4 -7 -19 -20 -33 -29 -14 -9 -34 -24 -45
-34 -11 -11 -47 -41 -80 -69 -64 -53 -299 -285 -376 -371 -90 -101 -210 -250
-288 -359 -28 -38 -54 -74 -58 -80 -36 -46 -133 -196 -133 -204 0 -6 -4 -11
-10 -11 -5 0 -12 -11 -16 -24 -3 -14 -14 -32 -25 -42 -10 -9 -19 -22 -19 -27
0 -6 -11 -25 -25 -43 -14 -18 -25 -39 -25 -47 0 -9 -3 -17 -8 -19 -4 -1 -20
-28 -36 -58 -89 -173 -111 -215 -112 -220 0 -3 -19 -43 -42 -90 -22 -47 -44
-97 -47 -112 -4 -16 -11 -28 -16 -28 -5 0 -9 -5 -9 -10 0 -10 -69 -197 -91
-245 -44 -100 -178 -590 -164 -603 2 -3 1 -10 -4 -16 -5 -6 -12 -33 -15 -61
-4 -27 -9 -61 -11 -75 -1 -14 -6 -41 -10 -60 -7 -38 -12 -82 -21 -200 -3 -41
-7 -80 -8 -86 -2 -5 -24 -11 -49 -12 -25 -2 -55 -5 -67 -7 -98 -19 -923 -28
-1175 -13 -132 8 -279 20 -282 22 -4 3 -11 61 -18 131 -6 78 -23 209 -30 246
-3 13 -8 40 -11 59 -13 80 -69 327 -82 360 -3 8 -6 18 -7 23 -2 4 -3 8 -5 10
-1 1 -4 16 -6 32 -2 17 -8 39 -13 50 -14 30 -23 58 -26 75 -6 29 -94 267 -124
332 -11 26 -21 50 -21 53 0 14 -85 190 -95 197 -5 4 -7 8 -2 8 7 0 -96 204
-115 228 -6 6 -8 12 -5 12 4 0 -5 16 -18 36 -14 20 -25 42 -25 48 0 7 -7 21
-15 31 -18 24 -81 119 -101 155 -30 52 -163 250 -198 295 -9 11 -32 41 -52 68
-19 26 -39 45 -45 42 -5 -3 -7 0 -4 7 3 7 -10 30 -27 50 -18 21 -40 46 -48 56
-110 139 -424 457 -441 447 -7 -5 -10 -4 -6 2 11 17 -189 182 -376 310 -26 18
-47 37 -47 42 0 17 264 531 344 671 107 185 168 284 313 502 114 171 127 186
147 178 12 -4 56 -24 97 -43z m549 47 c0 -8 -19 -13 -24 -6 -3 5 1 9 9 9 8 0
15 -2 15 -3z m1906 -30 c1 -9 0 -13 -4 -10 -3 4 -7 14 -8 22 -1 9 0 13 4 10 3
-4 7 -14 8 -22z m-2245 -27 c-10 -9 -11 -8 -5 6 3 10 9 15 12 12 3 -3 0 -11
-7 -18z m3200 0 c-10 -9 -11 -8 -5 6 3 10 9 15 12 12 3 -3 0 -11 -7 -18z
m-2573 -12 c-3 -3 -9 2 -12 12 -6 14 -5 15 5 6 7 -7 10 -15 7 -18z m1559 10
c0 -8 -4 -12 -9 -9 -5 3 -6 10 -3 15 9 13 12 11 12 -6z m-1280 -10 c0 -8 -4
-12 -9 -9 -5 3 -6 10 -3 15 9 13 12 11 12 -6z m1603 5 c0 -5 -5 -10 -11 -10
-5 0 -7 5 -4 10 3 6 8 10 11 10 2 0 4 -4 4 -10z m218 -25 c-3 -3 -9 2 -12 12
-6 14 -5 15 5 6 7 -7 10 -15 7 -18z m-798 11 c0 -2 -7 -7 -16 -10 -8 -3 -12
-2 -9 4 6 10 25 14 25 6z m-964 -21 c-1 -8 -5 -17 -8 -21 -5 -4 -4 16 1 34 3
9 9 -1 7 -13z m-56 -109 c0 -2 -8 -10 -17 -17 -16 -13 -17 -12 -4 4 13 16 21
21 21 13z m800 -16 c0 -5 -2 -10 -4 -10 -3 0 -8 5 -11 10 -3 6 -1 10 4 10 6 0
11 -4 11 -10z m-570 -56 c0 -8 -19 -13 -24 -6 -3 5 1 9 9 9 8 0 15 -2 15 -3z
m4235 -904 c-3 -5 -12 -10 -18 -10 -7 0 -6 4 3 10 19 12 23 12 15 0z m-7930
-39 c3 -5 2 -12 -3 -15 -5 -3 -9 1 -9 9 0 17 3 19 12 6z m900 -110 c3 -5 2
-12 -3 -15 -5 -3 -9 1 -9 9 0 17 3 19 12 6z m6725 -5 c0 -3 -4 -8 -10 -11 -5
-3 -10 -1 -10 4 0 6 5 11 10 11 6 0 10 -2 10 -4z m700 -66 c0 -5 -5 -10 -11
-10 -5 0 -7 5 -4 10 3 6 8 10 11 10 2 0 4 -4 4 -10z m-8587 -95 c-3 -9 -8 -14
-10 -11 -3 3 -2 9 2 15 9 16 15 13 8 -4z m7224 -50 c0 -8 -4 -12 -9 -9 -5 3
-6 10 -3 15 9 13 12 11 12 -6z m-224 -110 c-3 -9 -8 -14 -10 -11 -3 3 -2 9 2
15 9 16 15 13 8 -4z m1747 -25 c0 -5 -2 -10 -4 -10 -3 0 -8 5 -11 10 -3 6 -1
10 4 10 6 0 11 -4 11 -10z m-8820 -140 c0 -5 -5 -10 -11 -10 -5 0 -7 5 -4 10
3 6 8 10 11 10 2 0 4 -4 4 -10z m357 -5 c0 -8 -4 -12 -9 -9 -5 3 -6 10 -3 15
9 13 12 11 12 -6z m8240 0 c0 -8 -4 -12 -9 -9 -5 3 -6 10 -3 15 9 13 12 11 12
-6z m-8106 -102 c13 -16 12 -17 -3 -4 -10 7 -18 15 -18 17 0 8 8 3 21 -13z
m6569 11 c0 -8 -19 -13 -24 -6 -3 5 1 9 9 9 8 0 15 -2 15 -3z m315 -52 c-3 -3
-11 0 -18 7 -9 10 -8 11 6 5 10 -3 15 -9 12 -12z m1222 -7 c0 -8 -4 -12 -9 -9
-5 3 -6 10 -3 15 9 13 12 11 12 -6z m-257 -19 c0 -2 -7 -7 -16 -10 -8 -3 -12
-2 -9 4 6 10 25 14 25 6z m-923 -61 c0 -8 -4 -12 -9 -9 -5 3 -6 10 -3 15 9 13
12 11 12 -6z m-832 -25 c3 -6 -1 -7 -9 -4 -18 7 -21 14 -7 14 6 0 13 -4 16
-10z m-114 -73 c-10 -9 -11 -8 -5 6 3 10 9 15 12 12 3 -3 0 -11 -7 -18z m109
-111 c0 -2 -8 -10 -17 -17 -16 -13 -17 -12 -4 4 13 16 21 21 21 13z m-4060
-36 c0 -5 -5 -10 -11 -10 -5 0 -7 5 -4 10 3 6 8 10 11 10 2 0 4 -4 4 -10z
m4240 6 c0 -3 -4 -8 -10 -11 -5 -3 -10 -1 -10 4 0 6 5 11 10 11 6 0 10 -2 10
-4z m-175 -186 c-3 -5 -12 -10 -18 -10 -7 0 -6 4 3 10 19 12 23 12 15 0z
m-4009 -95 c-1 -8 -5 -17 -8 -21 -5 -4 -4 16 1 34 3 9 9 -1 7 -13z m-151 -25
c-3 -5 -12 -10 -18 -10 -7 0 -6 4 3 10 19 12 23 12 15 0z m4248 -15 c-3 -9 -8
-14 -10 -11 -3 3 -2 9 2 15 9 16 15 13 8 -4z m-4578 -114 c3 -5 2 -12 -3 -15
-5 -3 -9 1 -9 9 0 17 3 19 12 6z m6636 -98 c13 -16 12 -17 -3 -4 -10 7 -18 15
-18 17 0 8 8 3 21 -13z m-6467 -51 c3 -5 -1 -9 -9 -9 -8 0 -12 4 -9 9 3 4 7 8
9 8 2 0 6 -4 9 -8z m4796 2 c0 -8 -19 -13 -24 -6 -3 5 1 9 9 9 8 0 15 -2 15
-3z m-646 -50 c3 -8 2 -12 -4 -9 -6 3 -10 10 -10 16 0 14 7 11 14 -7z m-4120
-12 c3 -5 -1 -9 -9 -9 -8 0 -12 4 -9 9 3 4 7 8 9 8 2 0 6 -4 9 -8z m5086 -62
c0 -5 -5 -10 -11 -10 -5 0 -7 5 -4 10 3 6 8 10 11 10 2 0 4 -4 4 -10z m1280
-40 c0 -5 -4 -10 -10 -10 -5 0 -10 5 -10 10 0 6 5 10 10 10 6 0 10 -4 10 -10z
m-6383 -55 c0 -8 -4 -15 -9 -15 -10 0 -11 14 -1 23 9 10 10 9 10 -8z m5133 1
c0 -2 -8 -10 -17 -17 -16 -13 -17 -12 -4 4 13 16 21 21 21 13z m107 -11 c0 -8
-4 -12 -9 -9 -4 3 -8 9 -8 15 0 5 4 9 8 9 5 0 9 -7 9 -15z m-7337 -53 c0 -5
-7 -9 -15 -9 -8 0 -12 4 -9 9 3 4 9 8 15 8 5 0 9 -4 9 -8z m1610 -38 c0 -8
-19 -13 -24 -6 -3 5 1 9 9 9 8 0 15 -2 15 -3z m5594 -2 c3 -5 -1 -9 -9 -9 -8
0 -12 4 -9 9 3 4 7 8 9 8 2 0 6 -4 9 -8z m41 -61 c-9 -8 -36 -10 -30 -2 2 4
11 8 20 8 8 0 13 -3 10 -6z m1806 -8 c13 -16 12 -17 -3 -4 -10 7 -18 15 -18
17 0 8 8 3 21 -13z m-87 -15 c-3 -4 -9 -8 -15 -8 -5 0 -9 4 -9 8 0 5 7 9 15 9
8 0 12 -4 9 -9z m-5920 -36 c3 -5 -1 -9 -9 -9 -8 0 -12 4 -9 9 3 4 7 8 9 8 2
0 6 -4 9 -8z m-3359 -102 c-3 -5 -12 -10 -18 -10 -7 0 -6 4 3 10 19 12 23 12
15 0z m150 -90 c10 -11 16 -20 13 -20 -3 0 -13 9 -23 20 -10 11 -16 20 -13 20
3 0 13 -9 23 -20z m165 6 c0 -2 -8 -10 -17 -17 -16 -13 -17 -12 -4 4 13 16 21
21 21 13z m7533 -71 c-3 -9 -8 -14 -10 -11 -3 3 -2 9 2 15 9 16 15 13 8 -4z
m-7273 -5 c0 -5 -4 -10 -10 -10 -5 0 -10 5 -10 10 0 6 5 10 10 10 6 0 10 -4
10 -10z m5994 -6 c3 -8 2 -12 -4 -9 -6 3 -10 10 -10 16 0 14 7 11 14 -7z
m-5623 -61 c13 -16 12 -17 -3 -4 -10 7 -18 15 -18 17 0 8 8 3 21 -13z m6589
-77 c0 -2 -8 -10 -17 -17 -16 -13 -17 -12 -4 4 13 16 21 21 21 13z m-1805 -15
c3 -5 2 -12 -3 -15 -5 -3 -9 1 -9 9 0 17 3 19 12 6z m350 -61 c3 -6 -1 -7 -9
-4 -18 7 -21 14 -7 14 6 0 13 -4 16 -10z m-2465 -100 c0 -5 -2 -10 -4 -10 -3
0 -8 5 -11 10 -3 6 -1 10 4 10 6 0 11 -4 11 -10z m-2020 -14 c0 -3 -4 -8 -10
-11 -5 -3 -10 -1 -10 4 0 6 5 11 10 11 6 0 10 -2 10 -4z m474 -44 c3 -5 -1 -9
-9 -9 -8 0 -12 4 -9 9 3 4 7 8 9 8 2 0 6 -4 9 -8z m-464 -38 c0 -8 -19 -13
-24 -6 -3 5 1 9 9 9 8 0 15 -2 15 -3z m7344 -10 c3 -8 2 -12 -4 -9 -6 3 -10
10 -10 16 0 14 7 11 14 -7z m-5974 -54 c0 -5 -2 -10 -4 -10 -3 0 -8 5 -11 10
-3 6 -1 10 4 10 6 0 11 -4 11 -10z m531 -13 c-10 -9 -11 -8 -5 6 3 10 9 15 12
12 3 -3 0 -11 -7 -18z m-1111 -87 c0 -5 -5 -10 -11 -10 -5 0 -7 5 -4 10 3 6 8
10 11 10 2 0 4 -4 4 -10z m1120 4 c0 -8 -19 -13 -24 -6 -3 5 1 9 9 9 8 0 15
-2 15 -3z m-323 -29 c0 -8 -4 -12 -9 -9 -5 3 -6 10 -3 15 9 13 12 11 12 -6z
m2403 -49 c0 -2 -7 -7 -16 -10 -8 -3 -12 -2 -9 4 6 10 25 14 25 6z m165 -6
c-3 -5 -12 -10 -18 -10 -7 0 -6 4 3 10 19 12 23 12 15 0z m3355 -34 c0 -2 -7
-7 -16 -10 -8 -3 -12 -2 -9 4 6 10 25 14 25 6z m-7627 -261 c-3 -9 -8 -14 -10
-11 -3 3 -2 9 2 15 9 16 15 13 8 -4z m2267 -159 c0 -3 -4 -8 -10 -11 -5 -3
-10 -1 -10 4 0 6 5 11 10 11 6 0 10 -2 10 -4z m4945 -6 c3 -6 -1 -7 -9 -4 -18
7 -21 14 -7 14 6 0 13 -4 16 -10z m-7427 -65 c-3 -3 -9 2 -12 12 -6 14 -5 15
5 6 7 -7 10 -15 7 -18z m147 -95 c3 -6 -1 -7 -9 -4 -18 7 -21 14 -7 14 6 0 13
-4 16 -10z m6099 -98 c2 -4 -4 -8 -14 -8 -10 0 -16 4 -14 8 3 4 9 8 14 8 5 0
11 -4 14 -8z m-6564 -46 c0 -2 -8 -10 -17 -17 -16 -13 -17 -12 -4 4 13 16 21
21 21 13z m5536 -11 c-1 -8 -5 -17 -8 -21 -5 -4 -4 16 1 34 3 9 9 -1 7 -13z
m984 -1 c0 -8 -19 -13 -24 -6 -3 5 1 9 9 9 8 0 15 -2 15 -3z m-6523 -49 c0 -8
-4 -12 -9 -9 -5 3 -6 10 -3 15 9 13 12 11 12 -6z m1608 -195 c3 -6 -1 -7 -9
-4 -18 7 -21 14 -7 14 6 0 13 -4 16 -10z m215 -74 c0 -3 -4 -8 -10 -11 -5 -3
-10 -1 -10 4 0 6 5 11 10 11 6 0 10 -2 10 -4z m900 -106 c0 -5 -2 -10 -4 -10
-3 0 -8 5 -11 10 -3 6 -1 10 4 10 6 0 11 -4 11 -10z m3834 2 c3 -5 -1 -9 -9
-9 -8 0 -12 4 -9 9 3 4 7 8 9 8 2 0 6 -4 9 -8z m-1859 -61 c3 -5 2 -12 -3 -15
-5 -3 -9 1 -9 9 0 17 3 19 12 6z m-2238 -166 c0 -8 -4 -12 -9 -9 -5 3 -6 10
-3 15 9 13 12 11 12 -6z m2243 11 c0 -2 -7 -7 -16 -10 -8 -3 -12 -2 -9 4 6 10
25 14 25 6z m2225 -85 c-9 -8 -36 -10 -30 -2 2 4 11 8 20 8 8 0 13 -3 10 -6z
m-6125 -21 c0 -5 -2 -10 -4 -10 -3 0 -8 5 -11 10 -3 6 -1 10 4 10 6 0 11 -4
11 -10z m5274 2 c3 -5 -1 -9 -9 -9 -8 0 -12 4 -9 9 3 4 7 8 9 8 2 0 6 -4 9 -8z
m-3678 -28 c1 -9 0 -13 -4 -10 -3 4 -7 14 -8 22 -1 9 0 13 4 10 3 -4 7 -14 8
-22z m-59 -29 c0 -8 -4 -12 -9 -9 -5 3 -6 10 -3 15 9 13 12 11 12 -6z m4280 0
c0 -8 -4 -12 -9 -9 -5 3 -6 10 -3 15 9 13 12 11 12 -6z m-4537 -19 c0 -3 -4
-8 -10 -11 -5 -3 -10 -1 -10 4 0 6 5 11 10 11 6 0 10 -2 10 -4z m-163 -21 c0
-8 -4 -12 -9 -9 -5 3 -6 10 -3 15 9 13 12 11 12 -6z m-157 -339 c0 -3 -4 -8
-10 -11 -5 -3 -10 -1 -10 4 0 6 5 11 10 11 6 0 10 -2 10 -4z m324 -4 c3 -5 -1
-9 -9 -9 -8 0 -12 4 -9 9 3 4 7 8 9 8 2 0 6 -4 9 -8z m-464 -96 c0 -3 -4 -8
-10 -11 -5 -3 -10 -1 -10 4 0 6 5 11 10 11 6 0 10 -2 10 -4z m3960 0 c0 -2 -7
-7 -16 -10 -8 -3 -12 -2 -9 4 6 10 25 14 25 6z"/>
<path d="M4889 6206 c-2 -2 -31 -6 -64 -10 -377 -40 -751 -272 -973 -603 -98
-146 -183 -356 -208 -513 -2 -14 -8 -52 -13 -85 -9 -61 -7 -281 4 -345 78
-462 352 -836 760 -1035 195 -95 387 -139 605 -139 486 1 939 269 1185 700 44
76 118 253 129 304 3 14 12 57 20 95 24 115 26 135 26 266 0 370 -137 697
-405 964 -209 208 -465 340 -755 390 -43 7 -305 17 -311 11z m364 -315 c309
-81 554 -274 700 -551 44 -83 89 -210 101 -280 3 -19 9 -46 12 -60 10 -42 12
-245 4 -292 -5 -23 -11 -60 -14 -81 -9 -54 -63 -209 -95 -270 -256 -487 -806
-711 -1321 -537 -287 97 -534 328 -650 610 -54 131 -81 267 -81 410 0 141 14
221 62 360 137 395 520 690 928 717 47 3 87 6 88 7 9 7 208 -18 266 -33z"/>
</g>
</svg>
